<svg xmlns="http://www.w3.org/2000/svg" width="512" height="512"><path fill="#ff5354" d="M378.49 97.25a7.27 7.27 0 0 0-.13-1.2v-.01a7.53 7.53 0 0 0-.72-2.01l-.02-.05a7.42 7.42 0 0 0-1.32-1.78l-90-90-.05-.05a7.5 7.5 0 0 0-.5-.44l-.16-.13-.05-.03-.18-.14-.2-.14-.15-.1c-.15-.1-.3-.2-.47-.28h-.02c-.01-.02-.03-.02-.05-.03l-.04-.02c-.19-.1-.37-.18-.56-.26l-.07-.03-.19-.07-.18-.07-.25-.08-.08-.02c-.2-.06-.41-.12-.63-.16h-.02l-.17-.03a7.2 7.2 0 0 0-.53-.08l-.25-.01-.25-.01L281 0H51a7.5 7.5 0 0 0-7.5 7.5v440a7.5 7.5 0 1 0 15 0V65H179a7.5 7.5 0 1 0 0-15h-8.5V15h103v35H211a7.5 7.5 0 1 0 0 15h62.5v32.5a7.5 7.5 0 0 0 7.5 7.5h82.5v22.67a7.5 7.5 0 1 0 15 0V97.5l-.01-.25zM155.5 50h-97V15h97v35zm133 40V25.6L352.9 90h-64.4z"/><circle cx="80" cy="32.5" r="7.5" fill="#ff5354"/><circle cx="136" cy="32.5" r="7.5" fill="#ff5354"/><circle cx="108" cy="32.5" r="7.5" fill="#ff5354"/><path fill="#ff5354" d="M311.54 288.03c-1.59-1.2-39.54-29.53-100.62-29.53-61.1 0-98.9 28.33-100.47 29.54a7.5 7.5 0 0 0 9.09 11.93c.35-.27 35.6-26.47 91.38-26.47 55.78 0 91.2 26.21 91.54 26.47a7.47 7.47 0 0 0 10.51-1.43 7.5 7.5 0 0 0-1.43-10.51zM164.27 183.21L154.3 175l9.97-8.21a7.5 7.5 0 0 0-9.54-11.58l-17 14a7.5 7.5 0 0 0 0 11.58l17 14a7.47 7.47 0 0 0 10.56-1.02 7.5 7.5 0 0 0-1.02-10.56zM284.27 169.21l-17-14a7.5 7.5 0 1 0-9.54 11.58l9.97 8.21-9.97 8.21a7.5 7.5 0 0 0 9.54 11.58l17-14a7.5 7.5 0 0 0 0-11.58z"/><path fill="#ff5354" d="M378.5 317.29V161a7.5 7.5 0 1 0-15 0v156.29c-50.27 3.84-90 45.97-90 97.21a97.52 97.52 0 0 0 45.6 82.5H58.5v-17.17a7.5 7.5 0 1 0-15 0v24.67A7.5 7.5 0 0 0 51 512h320c53.76 0 97.5-43.74 97.5-97.5 0-51.24-39.73-93.37-90-97.21zM371 497c-45.5 0-82.5-37.01-82.5-82.5s37-82.5 82.5-82.5 82.5 37.01 82.5 82.5-37 82.5-82.5 82.5z"/><path fill="#ff5354" d="M409.9 414.5l15.9-15.9a7.5 7.5 0 0 0 0-10.61l-28.29-28.3a7.5 7.5 0 0 0-10.6 0L371 375.62l-15.91-15.91a7.5 7.5 0 0 0-10.6 0l-28.29 28.28a7.5 7.5 0 0 0 0 10.61l15.9 15.9-15.9 15.92a7.5 7.5 0 0 0 0 10.6l28.29 28.3a7.48 7.48 0 0 0 10.6 0L371 453.38l15.91 15.91a7.48 7.48 0 0 0 10.6 0l28.3-28.28a7.5 7.5 0 0 0 0-10.61l-15.92-15.9zm-60.11 38.9l-17.68-17.69 10.6-10.6 17.69 17.68-10.61 10.6zm42.42 0l-60.1-60.11 17.68-17.68 60.1 60.1-17.68 17.68zm7.08-49.5L381.6 386.2l10.61-10.6 17.68 17.68-10.6 10.6z"/></svg>
