<svg xmlns="http://www.w3.org/2000/svg" viewBox="0 0 102.45 102.45"><g fill="#ff5354"><path d="M61.98 17.16l-13.7 13.7c-.8.79-2.08.79-2.87 0l-.2-.2v-10.1a31.93 31.93 0 0 0-29.65 31.81A31.85 31.85 0 0 0 32.5 80.55a5.41 5.41 0 0 1-5.07 9.54A42.64 42.64 0 0 1 4.76 52.37 42.76 42.76 0 0 1 45.2 9.73V.8l.2-.2c.8-.79 2.08-.79 2.87 0l13.7 13.7c.8.8.8 2.08 0 2.87zM54.17 101.86l-13.7-13.7c-.79-.78-.79-2.07 0-2.86l13.7-13.7c.8-.79 2.08-.79 2.87 0l.2.2V81.9a31.93 31.93 0 0 0 29.65-31.8c0-11.83-6.5-22.62-16.94-28.18a5.4 5.4 0 1 1 5.08-9.54A42.65 42.65 0 0 1 97.7 50.08a42.75 42.75 0 0 1-40.46 42.64v8.94l-.2.2c-.8.8-2.07.8-2.87 0z"/></g></svg>
