<svg xmlns="http://www.w3.org/2000/svg" width="512" height="512"><path fill="#4F9582" d="M431 120.83a7.5 7.5 0 0 0-7.5 7.5V497h-335v-16.5a7.5 7.5 0 1 0-15 0v24A7.5 7.5 0 0 0 81 512h350a7.5 7.5 0 0 0 7.5-7.5V128.33a7.5 7.5 0 0 0-7.5-7.5zM431 0H256a7.5 7.5 0 1 0 0 15h167.5v35h-223V15h23.83a7.5 7.5 0 1 0 0-15H81a7.5 7.5 0 0 0-7.5 7.5v440.25a7.5 7.5 0 1 0 15 0V65h335v31a7.5 7.5 0 1 0 15 0V7.5A7.5 7.5 0 0 0 431 0zM185.5 50h-97V15h97v35z"/><path fill="#ff5354" d="M336 385.5H176a27.53 27.53 0 0 0-27.5 27.5v20a27.53 27.53 0 0 0 27.5 27.5h160a27.53 27.53 0 0 0 27.5-27.5v-20a27.53 27.53 0 0 0-27.5-27.5zm12.5 47.5c0 6.9-5.6 12.5-12.5 12.5H176c-6.9 0-12.5-5.6-12.5-12.5v-20c0-6.9 5.6-12.5 12.5-12.5h160c6.9 0 12.5 5.6 12.5 12.5v20z"/><circle cx="110" cy="32.5" r="7.5" fill="#ff5354"/><circle cx="138" cy="32.5" r="7.5" fill="#ff5354"/><circle cx="166" cy="32.5" r="7.5" fill="#ff5354"/><path fill="#ff5354" d="M204.5 283l-52-39 52-39a7.5 7.5 0 0 0-9-12l-60 45a7.5 7.5 0 0 0 0 12l60 45a7.47 7.47 0 0 0 10.5-1.5 7.5 7.5 0 0 0-1.5-10.5zM376.5 238l-60-45a7.5 7.5 0 0 0-9 12l52 39-52 39a7.5 7.5 0 0 0 9 12l60-45a7.5 7.5 0 0 0 0-12zM292.09 164.17a7.5 7.5 0 0 0-9.92 3.74l-66 146a7.5 7.5 0 1 0 13.66 6.18l66-146a7.5 7.5 0 0 0-3.74-9.92z"/></svg>
