<svg xmlns="http://www.w3.org/2000/svg" viewBox="0 0 294.84 294.84"><g fill="#25ca92"><path d="M199.92 210c-23.39 0-42.42 19.03-42.42 42.42s19.03 42.42 42.42 42.42 42.42-19.03 42.42-42.42-19.03-42.41-42.42-42.41zm0 72.84c-16.77 0-30.42-13.64-30.42-30.42s13.65-30.41 30.42-30.41c16.78 0 30.42 13.64 30.42 30.41s-13.64 30.42-30.42 30.42zM129.57 109.57c1.53 0 3.07-.59 4.24-1.76l35.78-35.78a42.28 42.28 0 0 0 30.33 12.8c23.4 0 42.42-19.02 42.42-42.41S223.31 0 199.92 0 157.5 19.03 157.5 42.42c0 7.15 1.79 13.89 4.93 19.8l-37.1 37.1a6 6 0 0 0 4.24 10.25zM199.92 12c16.78 0 30.42 13.65 30.42 30.42s-13.64 30.42-30.42 30.42c-16.77 0-30.42-13.65-30.42-30.42S183.15 12 199.92 12zM157.9 214.94l-35.36-35.37a42.33 42.33 0 0 0 14.8-32.15c0-23.39-19.03-42.42-42.42-42.42S52.5 124.03 52.5 147.42s19.03 42.42 42.42 42.42c6.14 0 11.97-1.32 17.24-3.68l37.26 37.26a5.98 5.98 0 0 0 8.49 0 6 6 0 0 0 0-8.48zm-93.4-67.52A30.45 30.45 0 0 1 94.92 117c16.77 0 30.42 13.65 30.42 30.42s-13.65 30.42-30.42 30.42a30.45 30.45 0 0 1-30.42-30.42z"/></g></svg>
