<svg xmlns="http://www.w3.org/2000/svg" viewBox="0 0 489.4 489.4"><g fill="#ff5354"><path d="M370.2 468.9a12.3 12.3 0 1 0 24.6 0V50.1l73.6 73.6c2.4 2.4 5.5 3.6 8.7 3.6s6.3-1.2 8.7-3.6a12.2 12.2 0 0 0 0-17.3l-94.5-94.5c-4.6-4.6-12.7-4.6-17.3 0l-94.5 94.5a12.2 12.2 0 0 0 0 17.3 12.2 12.2 0 0 0 17.3 0l73.6-73.6v418.8h-.2zM209.9 365.7a12.2 12.2 0 0 0-17.3 0L119 439.3V20.5a12.3 12.3 0 1 0-24.6 0v418.8l-73.5-73.6c-4.8-4.8-12.5-4.8-17.3 0s-4.8 12.5 0 17.3l94.5 94.5c2.4 2.4 5.5 3.6 8.7 3.6s6.3-1.2 8.7-3.6L210 383c4.6-4.7 4.6-12.5-.1-17.3z"/></g></svg>
